G04 #@! TF.GenerationSoftware,KiCad,Pcbnew,(5.0.0)*
G04 #@! TF.CreationDate,2019-02-05T10:05:27+00:00*
G04 #@! TF.ProjectId,test,746573742E6B696361645F7063620000,rev?*
G04 #@! TF.SameCoordinates,Original*
G04 #@! TF.FileFunction,Copper,L2,Bot,Plane*
G04 #@! TF.FilePolarity,Positive*
%FSLAX46Y46*%
G04 Gerber Fmt 4.6, Leading zero omitted, Abs format (unit mm)*
G04 Created by KiCad (PCBNEW (5.0.0)) date 02/05/19 10:05:27*
%MOMM*%
%LPD*%
G01*
G04 APERTURE LIST*
G04 #@! TA.AperFunction,ComponentPad*
%ADD10R,1.700000X1.700000*%
G04 #@! TD*
G04 #@! TA.AperFunction,ComponentPad*
%ADD11O,1.700000X1.700000*%
G04 #@! TD*
G04 #@! TA.AperFunction,ComponentPad*
%ADD12R,1.850000X1.850000*%
G04 #@! TD*
G04 #@! TA.AperFunction,ComponentPad*
%ADD13C,1.850000*%
G04 #@! TD*
G04 #@! TA.AperFunction,ComponentPad*
%ADD14C,1.600000*%
G04 #@! TD*
G04 #@! TA.AperFunction,ComponentPad*
%ADD15O,1.600000X1.600000*%
G04 #@! TD*
G04 #@! TA.AperFunction,ComponentPad*
%ADD16R,1.800000X1.800000*%
G04 #@! TD*
G04 #@! TA.AperFunction,ComponentPad*
%ADD17C,1.800000*%
G04 #@! TD*
G04 #@! TA.AperFunction,ComponentPad*
%ADD18C,1.400000*%
G04 #@! TD*
G04 #@! TA.AperFunction,ComponentPad*
%ADD19O,1.400000X1.400000*%
G04 #@! TD*
G04 #@! TA.AperFunction,ComponentPad*
%ADD20O,1.524000X1.524000*%
G04 #@! TD*
G04 #@! TA.AperFunction,ComponentPad*
%ADD21R,1.600000X1.600000*%
G04 #@! TD*
G04 #@! TA.AperFunction,ComponentPad*
%ADD22R,3.200000X3.200000*%
G04 #@! TD*
G04 #@! TA.AperFunction,ComponentPad*
%ADD23O,3.200000X3.200000*%
G04 #@! TD*
G04 #@! TA.AperFunction,Conductor*
%ADD24C,0.400000*%
G04 #@! TD*
G04 #@! TA.AperFunction,Conductor*
%ADD25C,0.254000*%
G04 #@! TD*
G04 APERTURE END LIST*
D10*
G04 #@! TO.P,BT1,1*
G04 #@! TO.N,+9V*
X171450000Y-115570000D03*
D11*
G04 #@! TO.P,BT1,2*
G04 #@! TO.N,GND*
X171450000Y-118110000D03*
G04 #@! TD*
D12*
G04 #@! TO.P,BZ1,1*
G04 #@! TO.N,Net-(BZ1-Pad1)*
X129540000Y-95250000D03*
D13*
G04 #@! TO.P,BZ1,2*
G04 #@! TO.N,GND*
X134540000Y-95250000D03*
G04 #@! TD*
D14*
G04 #@! TO.P,C1,1*
G04 #@! TO.N,Net-(C1-Pad1)*
X140970000Y-111760000D03*
D15*
G04 #@! TO.P,C1,2*
G04 #@! TO.N,GND*
X140970000Y-101760000D03*
G04 #@! TD*
D16*
G04 #@! TO.P,LED1,1*
G04 #@! TO.N,Net-(LED1-Pad1)*
X168910000Y-101600000D03*
D17*
G04 #@! TO.P,LED1,2*
G04 #@! TO.N,Net-(LED1-Pad2)*
X168910000Y-99060000D03*
G04 #@! TD*
D18*
G04 #@! TO.P,R1,1*
G04 #@! TO.N,Net-(LED1-Pad2)*
X162560000Y-105410000D03*
D19*
G04 #@! TO.P,R1,2*
G04 #@! TO.N,Net-(R1-Pad2)*
X157480000Y-105410000D03*
G04 #@! TD*
D18*
G04 #@! TO.P,R2,1*
G04 #@! TO.N,Net-(LED1-Pad1)*
X163830000Y-111760000D03*
D19*
G04 #@! TO.P,R2,2*
G04 #@! TO.N,GND*
X158750000Y-111760000D03*
G04 #@! TD*
D18*
G04 #@! TO.P,R3,1*
G04 #@! TO.N,Net-(R1-Pad2)*
X157480000Y-127000000D03*
D19*
G04 #@! TO.P,R3,2*
G04 #@! TO.N,Net-(R3-Pad2)*
X162560000Y-127000000D03*
G04 #@! TD*
D18*
G04 #@! TO.P,R4,1*
G04 #@! TO.N,Net-(R3-Pad2)*
X166370000Y-125730000D03*
D19*
G04 #@! TO.P,R4,2*
G04 #@! TO.N,GND*
X171450000Y-125730000D03*
G04 #@! TD*
D18*
G04 #@! TO.P,R5,1*
G04 #@! TO.N,Net-(R5-Pad1)*
X161290000Y-114300000D03*
D19*
G04 #@! TO.P,R5,2*
G04 #@! TO.N,Net-(R5-Pad2)*
X161290000Y-119380000D03*
G04 #@! TD*
D18*
G04 #@! TO.P,R6,1*
G04 #@! TO.N,Net-(R5-Pad1)*
X153670000Y-109220000D03*
D19*
G04 #@! TO.P,R6,2*
G04 #@! TO.N,GND*
X158750000Y-109220000D03*
G04 #@! TD*
D18*
G04 #@! TO.P,R7,1*
G04 #@! TO.N,/Link*
X144780000Y-119380000D03*
D19*
G04 #@! TO.P,R7,2*
G04 #@! TO.N,Net-(R5-Pad1)*
X144780000Y-114300000D03*
G04 #@! TD*
D18*
G04 #@! TO.P,R8,1*
G04 #@! TO.N,Net-(C1-Pad1)*
X143510000Y-109220000D03*
D19*
G04 #@! TO.P,R8,2*
G04 #@! TO.N,/Link*
X148590000Y-109220000D03*
G04 #@! TD*
D18*
G04 #@! TO.P,R9,1*
G04 #@! TO.N,/Link*
X137160000Y-109220000D03*
D19*
G04 #@! TO.P,R9,2*
G04 #@! TO.N,Net-(BZ1-Pad1)*
X137160000Y-104140000D03*
G04 #@! TD*
D20*
G04 #@! TO.P,SW1,1*
G04 #@! TO.N,Net-(RD1-Pad1)*
X175260000Y-95250000D03*
G04 #@! TO.P,SW1,2*
G04 #@! TO.N,+9V*
X180340000Y-95250000D03*
G04 #@! TD*
D21*
G04 #@! TO.P,U1,1*
G04 #@! TO.N,Net-(R5-Pad2)*
X156210000Y-121920000D03*
D14*
G04 #@! TO.P,U1,2*
G04 #@! TO.N,Net-(LED1-Pad1)*
X156210000Y-119380000D03*
G04 #@! TO.P,U1,3*
G04 #@! TO.N,Net-(R3-Pad2)*
X156210000Y-116840000D03*
G04 #@! TO.P,U1,4*
G04 #@! TO.N,GND*
X156210000Y-114300000D03*
G04 #@! TO.P,U1,5*
G04 #@! TO.N,Net-(R5-Pad1)*
X148590000Y-114300000D03*
G04 #@! TO.P,U1,6*
G04 #@! TO.N,Net-(C1-Pad1)*
X148590000Y-116840000D03*
G04 #@! TO.P,U1,7*
G04 #@! TO.N,/Link*
X148590000Y-119380000D03*
G04 #@! TO.P,U1,8*
G04 #@! TO.N,Net-(R1-Pad2)*
X148590000Y-121920000D03*
G04 #@! TD*
D22*
G04 #@! TO.P,RD1,1*
G04 #@! TO.N,Net-(RD1-Pad1)*
X161290000Y-97790000D03*
D23*
G04 #@! TO.P,RD1,2*
G04 #@! TO.N,Net-(R1-Pad2)*
X148590000Y-97790000D03*
G04 #@! TD*
D24*
G04 #@! TO.N,Net-(BZ1-Pad1)*
X130865000Y-95250000D02*
X129540000Y-95250000D01*
X137160000Y-101545000D02*
X130865000Y-95250000D01*
X137160000Y-104140000D02*
X137160000Y-101545000D01*
G04 #@! TO.N,Net-(R5-Pad2)*
X158750000Y-121920000D02*
X161290000Y-119380000D01*
X156210000Y-121920000D02*
X158750000Y-121920000D01*
G04 #@! TO.N,Net-(LED1-Pad1)*
X156210000Y-119380000D02*
X158750000Y-119380000D01*
X170210000Y-101600000D02*
X168910000Y-101600000D01*
X163830000Y-114300000D02*
X163830000Y-111760000D01*
X158750000Y-119380000D02*
X163830000Y-114300000D01*
X167610000Y-101600000D02*
X168910000Y-101600000D01*
X163830000Y-105380000D02*
X167610000Y-101600000D01*
X163830000Y-111760000D02*
X163830000Y-105380000D01*
G04 #@! TO.N,Net-(R3-Pad2)*
X161860001Y-125030001D02*
X162560000Y-125730000D01*
X161459999Y-124629999D02*
X161860001Y-125030001D01*
X156599997Y-124629999D02*
X161459999Y-124629999D01*
X154940000Y-122970002D02*
X156599997Y-124629999D01*
X154940000Y-118110000D02*
X154940000Y-122970002D01*
X156210000Y-116840000D02*
X154940000Y-118110000D01*
X162560000Y-125730000D02*
X166370000Y-125730000D01*
X162560000Y-127000000D02*
X162560000Y-125730000D01*
G04 #@! TO.N,Net-(R5-Pad1)*
X153670000Y-109220000D02*
X148590000Y-114300000D01*
X148590000Y-114300000D02*
X144780000Y-114300000D01*
X154369999Y-108520001D02*
X153670000Y-109220000D01*
X154770001Y-108119999D02*
X154369999Y-108520001D01*
X159278001Y-108119999D02*
X154770001Y-108119999D01*
X161290000Y-110131998D02*
X159278001Y-108119999D01*
X161290000Y-114300000D02*
X161290000Y-110131998D01*
G04 #@! TO.N,Net-(C1-Pad1)*
X145691998Y-116840000D02*
X147458630Y-116840000D01*
X140970000Y-111760000D02*
X143510000Y-109220000D01*
X147458630Y-116840000D02*
X148590000Y-116840000D01*
X144918630Y-116840000D02*
X147458630Y-116840000D01*
X140970000Y-112891370D02*
X144918630Y-116840000D01*
X140970000Y-111760000D02*
X140970000Y-112891370D01*
G04 #@! TO.N,+9V*
X172700000Y-115570000D02*
X171450000Y-115570000D01*
X180340000Y-107930000D02*
X172700000Y-115570000D01*
X180340000Y-95250000D02*
X180340000Y-107930000D01*
G04 #@! TO.N,Net-(LED1-Pad2)*
X168910000Y-99060000D02*
X162560000Y-105410000D01*
G04 #@! TO.N,Net-(R1-Pad2)*
X156210000Y-105410000D02*
X157480000Y-105410000D01*
X148590000Y-97790000D02*
X156210000Y-105410000D01*
X158179999Y-106109999D02*
X157480000Y-105410000D01*
X156490051Y-105410000D02*
X157480000Y-105410000D01*
X139341998Y-105410000D02*
X156490051Y-105410000D01*
X136059999Y-108691999D02*
X139341998Y-105410000D01*
X136059999Y-112288001D02*
X136059999Y-108691999D01*
X145691998Y-121920000D02*
X136059999Y-112288001D01*
X148590000Y-121920000D02*
X145691998Y-121920000D01*
X148590000Y-121920000D02*
X148590000Y-127000000D01*
X148590000Y-127000000D02*
X157480000Y-127000000D01*
G04 #@! TO.N,Net-(RD1-Pad1)*
X161290000Y-95790000D02*
X161290000Y-97790000D01*
X161830000Y-95250000D02*
X161290000Y-95790000D01*
X175260000Y-95250000D02*
X161830000Y-95250000D01*
G04 #@! TO.N,/Link*
X144780000Y-119380000D02*
X148590000Y-119380000D01*
X139700000Y-114300000D02*
X139700000Y-110131998D01*
X144780000Y-119380000D02*
X139700000Y-114300000D01*
X138788002Y-109220000D02*
X139700000Y-110131998D01*
X137160000Y-109220000D02*
X138788002Y-109220000D01*
X137160000Y-109220000D02*
X139700000Y-106680000D01*
X139700000Y-106680000D02*
X148590000Y-106680000D01*
X148590000Y-106680000D02*
X148590000Y-109220000D01*
G04 #@! TD*
D25*
G04 #@! TO.N,GND*
G36*
X187833000Y-129413000D02*
X123317000Y-129413000D01*
X123317000Y-108691999D01*
X135208642Y-108691999D01*
X135225000Y-108774237D01*
X135224999Y-112205768D01*
X135208642Y-112288001D01*
X135224999Y-112370234D01*
X135224999Y-112370237D01*
X135273447Y-112613801D01*
X135457998Y-112890002D01*
X135527719Y-112936588D01*
X145043413Y-122452283D01*
X145089997Y-122522001D01*
X145366197Y-122706552D01*
X145609761Y-122755000D01*
X145691998Y-122771358D01*
X145774235Y-122755000D01*
X147395604Y-122755000D01*
X147755000Y-123114396D01*
X147755001Y-126917758D01*
X147738642Y-127000000D01*
X147803448Y-127325801D01*
X147987999Y-127602001D01*
X148264199Y-127786552D01*
X148507763Y-127835000D01*
X148590000Y-127851358D01*
X148672237Y-127835000D01*
X156427025Y-127835000D01*
X156723783Y-128131758D01*
X157214452Y-128335000D01*
X157745548Y-128335000D01*
X158236217Y-128131758D01*
X158611758Y-127756217D01*
X158815000Y-127265548D01*
X158815000Y-126734452D01*
X158611758Y-126243783D01*
X158236217Y-125868242D01*
X157745548Y-125665000D01*
X157214452Y-125665000D01*
X156723783Y-125868242D01*
X156427025Y-126165000D01*
X149425000Y-126165000D01*
X149425000Y-123114396D01*
X149806534Y-122732862D01*
X150025000Y-122205439D01*
X150025000Y-121634561D01*
X149806534Y-121107138D01*
X149402862Y-120703466D01*
X149273784Y-120650000D01*
X149402862Y-120596534D01*
X149806534Y-120192862D01*
X150025000Y-119665439D01*
X150025000Y-119094561D01*
X149806534Y-118567138D01*
X149402862Y-118163466D01*
X149273784Y-118110000D01*
X149402862Y-118056534D01*
X149806534Y-117652862D01*
X150025000Y-117125439D01*
X150025000Y-116554561D01*
X149806534Y-116027138D01*
X149402862Y-115623466D01*
X149273784Y-115570000D01*
X149402862Y-115516534D01*
X149806534Y-115112862D01*
X150025000Y-114585439D01*
X150025000Y-114083223D01*
X154763035Y-114083223D01*
X154790222Y-114653454D01*
X154956136Y-115054005D01*
X155202255Y-115128139D01*
X156030395Y-114300000D01*
X156389605Y-114300000D01*
X157217745Y-115128139D01*
X157463864Y-115054005D01*
X157656965Y-114516777D01*
X157629778Y-113946546D01*
X157463864Y-113545995D01*
X157217745Y-113471861D01*
X156389605Y-114300000D01*
X156030395Y-114300000D01*
X155202255Y-113471861D01*
X154956136Y-113545995D01*
X154763035Y-114083223D01*
X150025000Y-114083223D01*
X150025000Y-114045867D01*
X150778612Y-113292255D01*
X155381861Y-113292255D01*
X156210000Y-114120395D01*
X157038139Y-113292255D01*
X156964005Y-113046136D01*
X156426777Y-112853035D01*
X155856546Y-112880222D01*
X155455995Y-113046136D01*
X155381861Y-113292255D01*
X150778612Y-113292255D01*
X151977538Y-112093329D01*
X157457284Y-112093329D01*
X157600203Y-112438396D01*
X157947337Y-112826764D01*
X158416669Y-113052727D01*
X158623000Y-112930206D01*
X158623000Y-111887000D01*
X158877000Y-111887000D01*
X158877000Y-112930206D01*
X159083331Y-113052727D01*
X159552663Y-112826764D01*
X159899797Y-112438396D01*
X160042716Y-112093329D01*
X159919374Y-111887000D01*
X158877000Y-111887000D01*
X158623000Y-111887000D01*
X157580626Y-111887000D01*
X157457284Y-112093329D01*
X151977538Y-112093329D01*
X153515868Y-110555000D01*
X153935548Y-110555000D01*
X154426217Y-110351758D01*
X154801758Y-109976217D01*
X154976924Y-109553329D01*
X157457284Y-109553329D01*
X157600203Y-109898396D01*
X157947337Y-110286764D01*
X158369464Y-110490000D01*
X157947337Y-110693236D01*
X157600203Y-111081604D01*
X157457284Y-111426671D01*
X157580626Y-111633000D01*
X158623000Y-111633000D01*
X158623000Y-110589794D01*
X158454942Y-110490000D01*
X158623000Y-110390206D01*
X158623000Y-109347000D01*
X157580626Y-109347000D01*
X157457284Y-109553329D01*
X154976924Y-109553329D01*
X155005000Y-109485548D01*
X155005000Y-109065868D01*
X155018585Y-109052283D01*
X155115868Y-108954999D01*
X157498130Y-108954999D01*
X157580626Y-109093000D01*
X158623000Y-109093000D01*
X158623000Y-109073000D01*
X158877000Y-109073000D01*
X158877000Y-109093000D01*
X158897000Y-109093000D01*
X158897000Y-109347000D01*
X158877000Y-109347000D01*
X158877000Y-110390206D01*
X159045058Y-110490000D01*
X158877000Y-110589794D01*
X158877000Y-111633000D01*
X159919374Y-111633000D01*
X160042716Y-111426671D01*
X159899797Y-111081604D01*
X159552663Y-110693236D01*
X159130536Y-110490000D01*
X159552663Y-110286764D01*
X159888344Y-109911210D01*
X160455001Y-110477868D01*
X160455000Y-113247025D01*
X160158242Y-113543783D01*
X159955000Y-114034452D01*
X159955000Y-114565548D01*
X160158242Y-115056217D01*
X160533783Y-115431758D01*
X161024452Y-115635000D01*
X161314132Y-115635000D01*
X158404133Y-118545000D01*
X157404396Y-118545000D01*
X157022862Y-118163466D01*
X156893784Y-118110000D01*
X157022862Y-118056534D01*
X157426534Y-117652862D01*
X157645000Y-117125439D01*
X157645000Y-116554561D01*
X157426534Y-116027138D01*
X157022862Y-115623466D01*
X156909417Y-115576475D01*
X156964005Y-115553864D01*
X157038139Y-115307745D01*
X156210000Y-114479605D01*
X155381861Y-115307745D01*
X155455995Y-115553864D01*
X155514448Y-115574874D01*
X155397138Y-115623466D01*
X154993466Y-116027138D01*
X154775000Y-116554561D01*
X154775000Y-117094133D01*
X154407720Y-117461413D01*
X154337999Y-117507999D01*
X154153448Y-117784200D01*
X154105000Y-118027764D01*
X154105000Y-118027767D01*
X154088643Y-118110000D01*
X154105000Y-118192233D01*
X154105001Y-122887764D01*
X154088643Y-122970002D01*
X154153448Y-123295802D01*
X154153449Y-123295803D01*
X154338000Y-123572003D01*
X154407718Y-123618587D01*
X155951413Y-125162284D01*
X155997996Y-125232000D01*
X156274196Y-125416551D01*
X156517760Y-125464999D01*
X156517763Y-125464999D01*
X156599996Y-125481356D01*
X156682229Y-125464999D01*
X161114131Y-125464999D01*
X161327717Y-125678585D01*
X161327720Y-125678587D01*
X161650950Y-126001818D01*
X161597519Y-126037519D01*
X161302458Y-126479109D01*
X161198846Y-127000000D01*
X161302458Y-127520891D01*
X161597519Y-127962481D01*
X162039109Y-128257542D01*
X162428515Y-128335000D01*
X162691485Y-128335000D01*
X163080891Y-128257542D01*
X163522481Y-127962481D01*
X163817542Y-127520891D01*
X163921154Y-127000000D01*
X163834627Y-126565000D01*
X165317025Y-126565000D01*
X165613783Y-126861758D01*
X166104452Y-127065000D01*
X166635548Y-127065000D01*
X167126217Y-126861758D01*
X167501758Y-126486217D01*
X167676924Y-126063329D01*
X170157284Y-126063329D01*
X170300203Y-126408396D01*
X170647337Y-126796764D01*
X171116669Y-127022727D01*
X171323000Y-126900206D01*
X171323000Y-125857000D01*
X171577000Y-125857000D01*
X171577000Y-126900206D01*
X171783331Y-127022727D01*
X172252663Y-126796764D01*
X172599797Y-126408396D01*
X172742716Y-126063329D01*
X172619374Y-125857000D01*
X171577000Y-125857000D01*
X171323000Y-125857000D01*
X170280626Y-125857000D01*
X170157284Y-126063329D01*
X167676924Y-126063329D01*
X167705000Y-125995548D01*
X167705000Y-125464452D01*
X167676925Y-125396671D01*
X170157284Y-125396671D01*
X170280626Y-125603000D01*
X171323000Y-125603000D01*
X171323000Y-124559794D01*
X171577000Y-124559794D01*
X171577000Y-125603000D01*
X172619374Y-125603000D01*
X172742716Y-125396671D01*
X172599797Y-125051604D01*
X172252663Y-124663236D01*
X171783331Y-124437273D01*
X171577000Y-124559794D01*
X171323000Y-124559794D01*
X171116669Y-124437273D01*
X170647337Y-124663236D01*
X170300203Y-125051604D01*
X170157284Y-125396671D01*
X167676925Y-125396671D01*
X167501758Y-124973783D01*
X167126217Y-124598242D01*
X166635548Y-124395000D01*
X166104452Y-124395000D01*
X165613783Y-124598242D01*
X165317025Y-124895000D01*
X162905868Y-124895000D01*
X162508587Y-124497720D01*
X162508585Y-124497717D01*
X162108586Y-124097719D01*
X162062000Y-124027998D01*
X161785800Y-123843447D01*
X161542236Y-123794999D01*
X161542232Y-123794999D01*
X161459999Y-123778642D01*
X161377766Y-123794999D01*
X156945866Y-123794999D01*
X156518306Y-123367440D01*
X157010000Y-123367440D01*
X157257765Y-123318157D01*
X157467809Y-123177809D01*
X157608157Y-122967765D01*
X157650478Y-122755000D01*
X158667767Y-122755000D01*
X158750000Y-122771357D01*
X158832233Y-122755000D01*
X158832237Y-122755000D01*
X159075801Y-122706552D01*
X159352001Y-122522001D01*
X159398587Y-122452280D01*
X161139626Y-120711243D01*
X161158515Y-120715000D01*
X161421485Y-120715000D01*
X161810891Y-120637542D01*
X162252481Y-120342481D01*
X162547542Y-119900891D01*
X162651154Y-119380000D01*
X162547542Y-118859109D01*
X162285470Y-118466890D01*
X170008524Y-118466890D01*
X170178355Y-118876924D01*
X170568642Y-119305183D01*
X171093108Y-119551486D01*
X171323000Y-119430819D01*
X171323000Y-118237000D01*
X171577000Y-118237000D01*
X171577000Y-119430819D01*
X171806892Y-119551486D01*
X172331358Y-119305183D01*
X172721645Y-118876924D01*
X172891476Y-118466890D01*
X172770155Y-118237000D01*
X171577000Y-118237000D01*
X171323000Y-118237000D01*
X170129845Y-118237000D01*
X170008524Y-118466890D01*
X162285470Y-118466890D01*
X162252481Y-118417519D01*
X161810891Y-118122458D01*
X161421485Y-118045000D01*
X161265867Y-118045000D01*
X164362284Y-114948584D01*
X164432001Y-114902001D01*
X164553610Y-114720000D01*
X169952560Y-114720000D01*
X169952560Y-116420000D01*
X170001843Y-116667765D01*
X170142191Y-116877809D01*
X170352235Y-117018157D01*
X170455708Y-117038739D01*
X170178355Y-117343076D01*
X170008524Y-117753110D01*
X170129845Y-117983000D01*
X171323000Y-117983000D01*
X171323000Y-117963000D01*
X171577000Y-117963000D01*
X171577000Y-117983000D01*
X172770155Y-117983000D01*
X172891476Y-117753110D01*
X172721645Y-117343076D01*
X172444292Y-117038739D01*
X172547765Y-117018157D01*
X172757809Y-116877809D01*
X172898157Y-116667765D01*
X172947440Y-116420000D01*
X172947440Y-116372139D01*
X173025801Y-116356552D01*
X173302001Y-116172001D01*
X173348587Y-116102280D01*
X180872283Y-108578585D01*
X180942001Y-108532001D01*
X181126552Y-108255801D01*
X181175000Y-108012237D01*
X181191358Y-107930000D01*
X181175000Y-107847763D01*
X181175000Y-96372227D01*
X181347180Y-96257180D01*
X181655944Y-95795082D01*
X181764368Y-95250000D01*
X181655944Y-94704918D01*
X181347180Y-94242820D01*
X180885082Y-93934056D01*
X180477588Y-93853000D01*
X180202412Y-93853000D01*
X179794918Y-93934056D01*
X179332820Y-94242820D01*
X179024056Y-94704918D01*
X178915632Y-95250000D01*
X179024056Y-95795082D01*
X179332820Y-96257180D01*
X179505000Y-96372227D01*
X179505001Y-107584131D01*
X172785500Y-114303633D01*
X172757809Y-114262191D01*
X172547765Y-114121843D01*
X172300000Y-114072560D01*
X170600000Y-114072560D01*
X170352235Y-114121843D01*
X170142191Y-114262191D01*
X170001843Y-114472235D01*
X169952560Y-114720000D01*
X164553610Y-114720000D01*
X164616552Y-114625801D01*
X164665000Y-114382237D01*
X164665000Y-114382236D01*
X164681358Y-114300000D01*
X164665000Y-114217763D01*
X164665000Y-112812975D01*
X164961758Y-112516217D01*
X165165000Y-112025548D01*
X165165000Y-111494452D01*
X164961758Y-111003783D01*
X164665000Y-110707025D01*
X164665000Y-105725867D01*
X167504473Y-102886395D01*
X167552191Y-102957809D01*
X167762235Y-103098157D01*
X168010000Y-103147440D01*
X169810000Y-103147440D01*
X170057765Y-103098157D01*
X170267809Y-102957809D01*
X170408157Y-102747765D01*
X170457440Y-102500000D01*
X170457440Y-102402139D01*
X170535801Y-102386552D01*
X170812001Y-102202001D01*
X170996552Y-101925801D01*
X171061358Y-101600000D01*
X170996552Y-101274199D01*
X170812001Y-100997999D01*
X170535801Y-100813448D01*
X170457440Y-100797861D01*
X170457440Y-100700000D01*
X170408157Y-100452235D01*
X170267809Y-100242191D01*
X170057765Y-100101843D01*
X170042092Y-100098725D01*
X170211310Y-99929507D01*
X170445000Y-99365330D01*
X170445000Y-98754670D01*
X170211310Y-98190493D01*
X169779507Y-97758690D01*
X169215330Y-97525000D01*
X168604670Y-97525000D01*
X168040493Y-97758690D01*
X167608690Y-98190493D01*
X167375000Y-98754670D01*
X167375000Y-99365330D01*
X167389294Y-99399838D01*
X162714133Y-104075000D01*
X162294452Y-104075000D01*
X161803783Y-104278242D01*
X161428242Y-104653783D01*
X161225000Y-105144452D01*
X161225000Y-105675548D01*
X161428242Y-106166217D01*
X161803783Y-106541758D01*
X162294452Y-106745000D01*
X162825548Y-106745000D01*
X162995001Y-106674810D01*
X162995000Y-110707025D01*
X162698242Y-111003783D01*
X162495000Y-111494452D01*
X162495000Y-112025548D01*
X162698242Y-112516217D01*
X162995001Y-112812976D01*
X162995000Y-113954132D01*
X162625000Y-114324132D01*
X162625000Y-114034452D01*
X162421758Y-113543783D01*
X162125000Y-113247025D01*
X162125000Y-110214230D01*
X162141357Y-110131997D01*
X162125000Y-110049764D01*
X162125000Y-110049761D01*
X162076552Y-109806197D01*
X162040529Y-109752285D01*
X161938584Y-109599713D01*
X161938583Y-109599712D01*
X161892001Y-109529997D01*
X161822285Y-109483415D01*
X159926588Y-107587719D01*
X159880002Y-107517998D01*
X159603802Y-107333447D01*
X159360238Y-107284999D01*
X159360234Y-107284999D01*
X159278001Y-107268642D01*
X159195768Y-107284999D01*
X154852233Y-107284999D01*
X154770000Y-107268642D01*
X154687767Y-107284999D01*
X154687764Y-107284999D01*
X154444200Y-107333447D01*
X154168000Y-107517998D01*
X154121415Y-107587717D01*
X153824132Y-107885000D01*
X153404452Y-107885000D01*
X152913783Y-108088242D01*
X152538242Y-108463783D01*
X152335000Y-108954452D01*
X152335000Y-109374132D01*
X148844133Y-112865000D01*
X148304561Y-112865000D01*
X147777138Y-113083466D01*
X147395604Y-113465000D01*
X145827661Y-113465000D01*
X145742481Y-113337519D01*
X145300891Y-113042458D01*
X144911485Y-112965000D01*
X144648515Y-112965000D01*
X144259109Y-113042458D01*
X143817519Y-113337519D01*
X143522458Y-113779109D01*
X143442182Y-114182684D01*
X142009447Y-112749949D01*
X142186534Y-112572862D01*
X142405000Y-112045439D01*
X142405000Y-111505868D01*
X143355868Y-110555000D01*
X143775548Y-110555000D01*
X144266217Y-110351758D01*
X144641758Y-109976217D01*
X144845000Y-109485548D01*
X144845000Y-108954452D01*
X144641758Y-108463783D01*
X144266217Y-108088242D01*
X143775548Y-107885000D01*
X143244452Y-107885000D01*
X142753783Y-108088242D01*
X142378242Y-108463783D01*
X142175000Y-108954452D01*
X142175000Y-109374132D01*
X141224132Y-110325000D01*
X140684561Y-110325000D01*
X140535000Y-110386950D01*
X140535000Y-110214235D01*
X140551358Y-110131998D01*
X140486552Y-109806197D01*
X140348584Y-109599714D01*
X140302001Y-109529997D01*
X140232282Y-109483412D01*
X139436589Y-108687720D01*
X139390003Y-108617999D01*
X139121966Y-108438902D01*
X140045869Y-107515000D01*
X147755000Y-107515000D01*
X147755001Y-108172339D01*
X147627519Y-108257519D01*
X147332458Y-108699109D01*
X147228846Y-109220000D01*
X147332458Y-109740891D01*
X147627519Y-110182481D01*
X148069109Y-110477542D01*
X148458515Y-110555000D01*
X148721485Y-110555000D01*
X149110891Y-110477542D01*
X149552481Y-110182481D01*
X149847542Y-109740891D01*
X149951154Y-109220000D01*
X149847542Y-108699109D01*
X149552481Y-108257519D01*
X149425000Y-108172339D01*
X149425000Y-106762237D01*
X149441358Y-106680000D01*
X149376552Y-106354199D01*
X149303588Y-106245000D01*
X156127766Y-106245000D01*
X156209999Y-106261357D01*
X156292232Y-106245000D01*
X156432339Y-106245000D01*
X156517519Y-106372481D01*
X156959109Y-106667542D01*
X157348515Y-106745000D01*
X157611485Y-106745000D01*
X157630375Y-106741243D01*
X157647715Y-106758583D01*
X157854198Y-106896551D01*
X158179998Y-106961356D01*
X158505799Y-106896551D01*
X158781999Y-106711999D01*
X158966551Y-106435799D01*
X159031356Y-106109998D01*
X158966551Y-105784198D01*
X158828583Y-105577715D01*
X158811243Y-105560375D01*
X158841154Y-105410000D01*
X158737542Y-104889109D01*
X158442481Y-104447519D01*
X158000891Y-104152458D01*
X157611485Y-104075000D01*
X157348515Y-104075000D01*
X156959109Y-104152458D01*
X156517519Y-104447519D01*
X156481818Y-104500949D01*
X150674334Y-98693467D01*
X150695324Y-98662054D01*
X150868786Y-97790000D01*
X150695324Y-96917946D01*
X150208926Y-96190000D01*
X159042560Y-96190000D01*
X159042560Y-99390000D01*
X159091843Y-99637765D01*
X159232191Y-99847809D01*
X159442235Y-99988157D01*
X159690000Y-100037440D01*
X162890000Y-100037440D01*
X163137765Y-99988157D01*
X163347809Y-99847809D01*
X163488157Y-99637765D01*
X163537440Y-99390000D01*
X163537440Y-96190000D01*
X163516554Y-96085000D01*
X174137773Y-96085000D01*
X174252820Y-96257180D01*
X174714918Y-96565944D01*
X175122412Y-96647000D01*
X175397588Y-96647000D01*
X175805082Y-96565944D01*
X176267180Y-96257180D01*
X176575944Y-95795082D01*
X176684368Y-95250000D01*
X176575944Y-94704918D01*
X176267180Y-94242820D01*
X175805082Y-93934056D01*
X175397588Y-93853000D01*
X175122412Y-93853000D01*
X174714918Y-93934056D01*
X174252820Y-94242820D01*
X174137773Y-94415000D01*
X161912232Y-94415000D01*
X161829999Y-94398643D01*
X161747766Y-94415000D01*
X161747763Y-94415000D01*
X161504199Y-94463448D01*
X161227999Y-94647999D01*
X161181416Y-94717715D01*
X160757719Y-95141413D01*
X160687999Y-95187999D01*
X160503448Y-95464200D01*
X160487861Y-95542560D01*
X159690000Y-95542560D01*
X159442235Y-95591843D01*
X159232191Y-95732191D01*
X159091843Y-95942235D01*
X159042560Y-96190000D01*
X150208926Y-96190000D01*
X150201345Y-96178655D01*
X149462054Y-95684676D01*
X148810128Y-95555000D01*
X148369872Y-95555000D01*
X147717946Y-95684676D01*
X146978655Y-96178655D01*
X146484676Y-96917946D01*
X146311214Y-97790000D01*
X146484676Y-98662054D01*
X146978655Y-99401345D01*
X147717946Y-99895324D01*
X148369872Y-100025000D01*
X148810128Y-100025000D01*
X149462054Y-99895324D01*
X149493467Y-99874334D01*
X154194131Y-104575000D01*
X139424229Y-104575000D01*
X139341997Y-104558643D01*
X139259765Y-104575000D01*
X139259761Y-104575000D01*
X139016197Y-104623448D01*
X138739997Y-104807999D01*
X138693415Y-104877714D01*
X135527717Y-108043414D01*
X135457999Y-108089998D01*
X135411415Y-108159716D01*
X135273447Y-108366199D01*
X135208642Y-108691999D01*
X123317000Y-108691999D01*
X123317000Y-94325000D01*
X127967560Y-94325000D01*
X127967560Y-96175000D01*
X128016843Y-96422765D01*
X128157191Y-96632809D01*
X128367235Y-96773157D01*
X128615000Y-96822440D01*
X130465000Y-96822440D01*
X130712765Y-96773157D01*
X130922809Y-96632809D01*
X130980541Y-96546408D01*
X136325001Y-101890870D01*
X136325000Y-103092339D01*
X136197519Y-103177519D01*
X135902458Y-103619109D01*
X135798846Y-104140000D01*
X135902458Y-104660891D01*
X136197519Y-105102481D01*
X136639109Y-105397542D01*
X137028515Y-105475000D01*
X137291485Y-105475000D01*
X137680891Y-105397542D01*
X138122481Y-105102481D01*
X138417542Y-104660891D01*
X138521154Y-104140000D01*
X138417542Y-103619109D01*
X138122481Y-103177519D01*
X137995000Y-103092339D01*
X137995000Y-102109041D01*
X139578086Y-102109041D01*
X139817611Y-102615134D01*
X140232577Y-102991041D01*
X140620961Y-103151904D01*
X140843000Y-103029915D01*
X140843000Y-101887000D01*
X141097000Y-101887000D01*
X141097000Y-103029915D01*
X141319039Y-103151904D01*
X141707423Y-102991041D01*
X142122389Y-102615134D01*
X142361914Y-102109041D01*
X142240629Y-101887000D01*
X141097000Y-101887000D01*
X140843000Y-101887000D01*
X139699371Y-101887000D01*
X139578086Y-102109041D01*
X137995000Y-102109041D01*
X137995000Y-101627232D01*
X138011357Y-101544999D01*
X137995000Y-101462766D01*
X137995000Y-101462763D01*
X137984696Y-101410959D01*
X139578086Y-101410959D01*
X139699371Y-101633000D01*
X140843000Y-101633000D01*
X140843000Y-100490085D01*
X141097000Y-100490085D01*
X141097000Y-101633000D01*
X142240629Y-101633000D01*
X142361914Y-101410959D01*
X142122389Y-100904866D01*
X141707423Y-100528959D01*
X141319039Y-100368096D01*
X141097000Y-100490085D01*
X140843000Y-100490085D01*
X140620961Y-100368096D01*
X140232577Y-100528959D01*
X139817611Y-100904866D01*
X139578086Y-101410959D01*
X137984696Y-101410959D01*
X137946552Y-101219199D01*
X137762001Y-100942999D01*
X137692286Y-100896417D01*
X133144125Y-96348256D01*
X133621349Y-96348256D01*
X133710821Y-96607332D01*
X134293368Y-96821325D01*
X134913461Y-96796097D01*
X135369179Y-96607332D01*
X135458651Y-96348256D01*
X134540000Y-95429605D01*
X133621349Y-96348256D01*
X133144125Y-96348256D01*
X131799236Y-95003368D01*
X132968675Y-95003368D01*
X132993903Y-95623461D01*
X133182668Y-96079179D01*
X133441744Y-96168651D01*
X134360395Y-95250000D01*
X134719605Y-95250000D01*
X135638256Y-96168651D01*
X135897332Y-96079179D01*
X136111325Y-95496632D01*
X136086097Y-94876539D01*
X135897332Y-94420821D01*
X135638256Y-94331349D01*
X134719605Y-95250000D01*
X134360395Y-95250000D01*
X133441744Y-94331349D01*
X133182668Y-94420821D01*
X132968675Y-95003368D01*
X131799236Y-95003368D01*
X131513587Y-94717720D01*
X131467001Y-94647999D01*
X131190801Y-94463448D01*
X131112440Y-94447861D01*
X131112440Y-94325000D01*
X131077978Y-94151744D01*
X133621349Y-94151744D01*
X134540000Y-95070395D01*
X135458651Y-94151744D01*
X135369179Y-93892668D01*
X134786632Y-93678675D01*
X134166539Y-93703903D01*
X133710821Y-93892668D01*
X133621349Y-94151744D01*
X131077978Y-94151744D01*
X131063157Y-94077235D01*
X130922809Y-93867191D01*
X130712765Y-93726843D01*
X130465000Y-93677560D01*
X128615000Y-93677560D01*
X128367235Y-93726843D01*
X128157191Y-93867191D01*
X128016843Y-94077235D01*
X127967560Y-94325000D01*
X123317000Y-94325000D01*
X123317000Y-87757000D01*
X187833000Y-87757000D01*
X187833000Y-129413000D01*
X187833000Y-129413000D01*
G37*
X187833000Y-129413000D02*
X123317000Y-129413000D01*
X123317000Y-108691999D01*
X135208642Y-108691999D01*
X135225000Y-108774237D01*
X135224999Y-112205768D01*
X135208642Y-112288001D01*
X135224999Y-112370234D01*
X135224999Y-112370237D01*
X135273447Y-112613801D01*
X135457998Y-112890002D01*
X135527719Y-112936588D01*
X145043413Y-122452283D01*
X145089997Y-122522001D01*
X145366197Y-122706552D01*
X145609761Y-122755000D01*
X145691998Y-122771358D01*
X145774235Y-122755000D01*
X147395604Y-122755000D01*
X147755000Y-123114396D01*
X147755001Y-126917758D01*
X147738642Y-127000000D01*
X147803448Y-127325801D01*
X147987999Y-127602001D01*
X148264199Y-127786552D01*
X148507763Y-127835000D01*
X148590000Y-127851358D01*
X148672237Y-127835000D01*
X156427025Y-127835000D01*
X156723783Y-128131758D01*
X157214452Y-128335000D01*
X157745548Y-128335000D01*
X158236217Y-128131758D01*
X158611758Y-127756217D01*
X158815000Y-127265548D01*
X158815000Y-126734452D01*
X158611758Y-126243783D01*
X158236217Y-125868242D01*
X157745548Y-125665000D01*
X157214452Y-125665000D01*
X156723783Y-125868242D01*
X156427025Y-126165000D01*
X149425000Y-126165000D01*
X149425000Y-123114396D01*
X149806534Y-122732862D01*
X150025000Y-122205439D01*
X150025000Y-121634561D01*
X149806534Y-121107138D01*
X149402862Y-120703466D01*
X149273784Y-120650000D01*
X149402862Y-120596534D01*
X149806534Y-120192862D01*
X150025000Y-119665439D01*
X150025000Y-119094561D01*
X149806534Y-118567138D01*
X149402862Y-118163466D01*
X149273784Y-118110000D01*
X149402862Y-118056534D01*
X149806534Y-117652862D01*
X150025000Y-117125439D01*
X150025000Y-116554561D01*
X149806534Y-116027138D01*
X149402862Y-115623466D01*
X149273784Y-115570000D01*
X149402862Y-115516534D01*
X149806534Y-115112862D01*
X150025000Y-114585439D01*
X150025000Y-114083223D01*
X154763035Y-114083223D01*
X154790222Y-114653454D01*
X154956136Y-115054005D01*
X155202255Y-115128139D01*
X156030395Y-114300000D01*
X156389605Y-114300000D01*
X157217745Y-115128139D01*
X157463864Y-115054005D01*
X157656965Y-114516777D01*
X157629778Y-113946546D01*
X157463864Y-113545995D01*
X157217745Y-113471861D01*
X156389605Y-114300000D01*
X156030395Y-114300000D01*
X155202255Y-113471861D01*
X154956136Y-113545995D01*
X154763035Y-114083223D01*
X150025000Y-114083223D01*
X150025000Y-114045867D01*
X150778612Y-113292255D01*
X155381861Y-113292255D01*
X156210000Y-114120395D01*
X157038139Y-113292255D01*
X156964005Y-113046136D01*
X156426777Y-112853035D01*
X155856546Y-112880222D01*
X155455995Y-113046136D01*
X155381861Y-113292255D01*
X150778612Y-113292255D01*
X151977538Y-112093329D01*
X157457284Y-112093329D01*
X157600203Y-112438396D01*
X157947337Y-112826764D01*
X158416669Y-113052727D01*
X158623000Y-112930206D01*
X158623000Y-111887000D01*
X158877000Y-111887000D01*
X158877000Y-112930206D01*
X159083331Y-113052727D01*
X159552663Y-112826764D01*
X159899797Y-112438396D01*
X160042716Y-112093329D01*
X159919374Y-111887000D01*
X158877000Y-111887000D01*
X158623000Y-111887000D01*
X157580626Y-111887000D01*
X157457284Y-112093329D01*
X151977538Y-112093329D01*
X153515868Y-110555000D01*
X153935548Y-110555000D01*
X154426217Y-110351758D01*
X154801758Y-109976217D01*
X154976924Y-109553329D01*
X157457284Y-109553329D01*
X157600203Y-109898396D01*
X157947337Y-110286764D01*
X158369464Y-110490000D01*
X157947337Y-110693236D01*
X157600203Y-111081604D01*
X157457284Y-111426671D01*
X157580626Y-111633000D01*
X158623000Y-111633000D01*
X158623000Y-110589794D01*
X158454942Y-110490000D01*
X158623000Y-110390206D01*
X158623000Y-109347000D01*
X157580626Y-109347000D01*
X157457284Y-109553329D01*
X154976924Y-109553329D01*
X155005000Y-109485548D01*
X155005000Y-109065868D01*
X155018585Y-109052283D01*
X155115868Y-108954999D01*
X157498130Y-108954999D01*
X157580626Y-109093000D01*
X158623000Y-109093000D01*
X158623000Y-109073000D01*
X158877000Y-109073000D01*
X158877000Y-109093000D01*
X158897000Y-109093000D01*
X158897000Y-109347000D01*
X158877000Y-109347000D01*
X158877000Y-110390206D01*
X159045058Y-110490000D01*
X158877000Y-110589794D01*
X158877000Y-111633000D01*
X159919374Y-111633000D01*
X160042716Y-111426671D01*
X159899797Y-111081604D01*
X159552663Y-110693236D01*
X159130536Y-110490000D01*
X159552663Y-110286764D01*
X159888344Y-109911210D01*
X160455001Y-110477868D01*
X160455000Y-113247025D01*
X160158242Y-113543783D01*
X159955000Y-114034452D01*
X159955000Y-114565548D01*
X160158242Y-115056217D01*
X160533783Y-115431758D01*
X161024452Y-115635000D01*
X161314132Y-115635000D01*
X158404133Y-118545000D01*
X157404396Y-118545000D01*
X157022862Y-118163466D01*
X156893784Y-118110000D01*
X157022862Y-118056534D01*
X157426534Y-117652862D01*
X157645000Y-117125439D01*
X157645000Y-116554561D01*
X157426534Y-116027138D01*
X157022862Y-115623466D01*
X156909417Y-115576475D01*
X156964005Y-115553864D01*
X157038139Y-115307745D01*
X156210000Y-114479605D01*
X155381861Y-115307745D01*
X155455995Y-115553864D01*
X155514448Y-115574874D01*
X155397138Y-115623466D01*
X154993466Y-116027138D01*
X154775000Y-116554561D01*
X154775000Y-117094133D01*
X154407720Y-117461413D01*
X154337999Y-117507999D01*
X154153448Y-117784200D01*
X154105000Y-118027764D01*
X154105000Y-118027767D01*
X154088643Y-118110000D01*
X154105000Y-118192233D01*
X154105001Y-122887764D01*
X154088643Y-122970002D01*
X154153448Y-123295802D01*
X154153449Y-123295803D01*
X154338000Y-123572003D01*
X154407718Y-123618587D01*
X155951413Y-125162284D01*
X155997996Y-125232000D01*
X156274196Y-125416551D01*
X156517760Y-125464999D01*
X156517763Y-125464999D01*
X156599996Y-125481356D01*
X156682229Y-125464999D01*
X161114131Y-125464999D01*
X161327717Y-125678585D01*
X161327720Y-125678587D01*
X161650950Y-126001818D01*
X161597519Y-126037519D01*
X161302458Y-126479109D01*
X161198846Y-127000000D01*
X161302458Y-127520891D01*
X161597519Y-127962481D01*
X162039109Y-128257542D01*
X162428515Y-128335000D01*
X162691485Y-128335000D01*
X163080891Y-128257542D01*
X163522481Y-127962481D01*
X163817542Y-127520891D01*
X163921154Y-127000000D01*
X163834627Y-126565000D01*
X165317025Y-126565000D01*
X165613783Y-126861758D01*
X166104452Y-127065000D01*
X166635548Y-127065000D01*
X167126217Y-126861758D01*
X167501758Y-126486217D01*
X167676924Y-126063329D01*
X170157284Y-126063329D01*
X170300203Y-126408396D01*
X170647337Y-126796764D01*
X171116669Y-127022727D01*
X171323000Y-126900206D01*
X171323000Y-125857000D01*
X171577000Y-125857000D01*
X171577000Y-126900206D01*
X171783331Y-127022727D01*
X172252663Y-126796764D01*
X172599797Y-126408396D01*
X172742716Y-126063329D01*
X172619374Y-125857000D01*
X171577000Y-125857000D01*
X171323000Y-125857000D01*
X170280626Y-125857000D01*
X170157284Y-126063329D01*
X167676924Y-126063329D01*
X167705000Y-125995548D01*
X167705000Y-125464452D01*
X167676925Y-125396671D01*
X170157284Y-125396671D01*
X170280626Y-125603000D01*
X171323000Y-125603000D01*
X171323000Y-124559794D01*
X171577000Y-124559794D01*
X171577000Y-125603000D01*
X172619374Y-125603000D01*
X172742716Y-125396671D01*
X172599797Y-125051604D01*
X172252663Y-124663236D01*
X171783331Y-124437273D01*
X171577000Y-124559794D01*
X171323000Y-124559794D01*
X171116669Y-124437273D01*
X170647337Y-124663236D01*
X170300203Y-125051604D01*
X170157284Y-125396671D01*
X167676925Y-125396671D01*
X167501758Y-124973783D01*
X167126217Y-124598242D01*
X166635548Y-124395000D01*
X166104452Y-124395000D01*
X165613783Y-124598242D01*
X165317025Y-124895000D01*
X162905868Y-124895000D01*
X162508587Y-124497720D01*
X162508585Y-124497717D01*
X162108586Y-124097719D01*
X162062000Y-124027998D01*
X161785800Y-123843447D01*
X161542236Y-123794999D01*
X161542232Y-123794999D01*
X161459999Y-123778642D01*
X161377766Y-123794999D01*
X156945866Y-123794999D01*
X156518306Y-123367440D01*
X157010000Y-123367440D01*
X157257765Y-123318157D01*
X157467809Y-123177809D01*
X157608157Y-122967765D01*
X157650478Y-122755000D01*
X158667767Y-122755000D01*
X158750000Y-122771357D01*
X158832233Y-122755000D01*
X158832237Y-122755000D01*
X159075801Y-122706552D01*
X159352001Y-122522001D01*
X159398587Y-122452280D01*
X161139626Y-120711243D01*
X161158515Y-120715000D01*
X161421485Y-120715000D01*
X161810891Y-120637542D01*
X162252481Y-120342481D01*
X162547542Y-119900891D01*
X162651154Y-119380000D01*
X162547542Y-118859109D01*
X162285470Y-118466890D01*
X170008524Y-118466890D01*
X170178355Y-118876924D01*
X170568642Y-119305183D01*
X171093108Y-119551486D01*
X171323000Y-119430819D01*
X171323000Y-118237000D01*
X171577000Y-118237000D01*
X171577000Y-119430819D01*
X171806892Y-119551486D01*
X172331358Y-119305183D01*
X172721645Y-118876924D01*
X172891476Y-118466890D01*
X172770155Y-118237000D01*
X171577000Y-118237000D01*
X171323000Y-118237000D01*
X170129845Y-118237000D01*
X170008524Y-118466890D01*
X162285470Y-118466890D01*
X162252481Y-118417519D01*
X161810891Y-118122458D01*
X161421485Y-118045000D01*
X161265867Y-118045000D01*
X164362284Y-114948584D01*
X164432001Y-114902001D01*
X164553610Y-114720000D01*
X169952560Y-114720000D01*
X169952560Y-116420000D01*
X170001843Y-116667765D01*
X170142191Y-116877809D01*
X170352235Y-117018157D01*
X170455708Y-117038739D01*
X170178355Y-117343076D01*
X170008524Y-117753110D01*
X170129845Y-117983000D01*
X171323000Y-117983000D01*
X171323000Y-117963000D01*
X171577000Y-117963000D01*
X171577000Y-117983000D01*
X172770155Y-117983000D01*
X172891476Y-117753110D01*
X172721645Y-117343076D01*
X172444292Y-117038739D01*
X172547765Y-117018157D01*
X172757809Y-116877809D01*
X172898157Y-116667765D01*
X172947440Y-116420000D01*
X172947440Y-116372139D01*
X173025801Y-116356552D01*
X173302001Y-116172001D01*
X173348587Y-116102280D01*
X180872283Y-108578585D01*
X180942001Y-108532001D01*
X181126552Y-108255801D01*
X181175000Y-108012237D01*
X181191358Y-107930000D01*
X181175000Y-107847763D01*
X181175000Y-96372227D01*
X181347180Y-96257180D01*
X181655944Y-95795082D01*
X181764368Y-95250000D01*
X181655944Y-94704918D01*
X181347180Y-94242820D01*
X180885082Y-93934056D01*
X180477588Y-93853000D01*
X180202412Y-93853000D01*
X179794918Y-93934056D01*
X179332820Y-94242820D01*
X179024056Y-94704918D01*
X178915632Y-95250000D01*
X179024056Y-95795082D01*
X179332820Y-96257180D01*
X179505000Y-96372227D01*
X179505001Y-107584131D01*
X172785500Y-114303633D01*
X172757809Y-114262191D01*
X172547765Y-114121843D01*
X172300000Y-114072560D01*
X170600000Y-114072560D01*
X170352235Y-114121843D01*
X170142191Y-114262191D01*
X170001843Y-114472235D01*
X169952560Y-114720000D01*
X164553610Y-114720000D01*
X164616552Y-114625801D01*
X164665000Y-114382237D01*
X164665000Y-114382236D01*
X164681358Y-114300000D01*
X164665000Y-114217763D01*
X164665000Y-112812975D01*
X164961758Y-112516217D01*
X165165000Y-112025548D01*
X165165000Y-111494452D01*
X164961758Y-111003783D01*
X164665000Y-110707025D01*
X164665000Y-105725867D01*
X167504473Y-102886395D01*
X167552191Y-102957809D01*
X167762235Y-103098157D01*
X168010000Y-103147440D01*
X169810000Y-103147440D01*
X170057765Y-103098157D01*
X170267809Y-102957809D01*
X170408157Y-102747765D01*
X170457440Y-102500000D01*
X170457440Y-102402139D01*
X170535801Y-102386552D01*
X170812001Y-102202001D01*
X170996552Y-101925801D01*
X171061358Y-101600000D01*
X170996552Y-101274199D01*
X170812001Y-100997999D01*
X170535801Y-100813448D01*
X170457440Y-100797861D01*
X170457440Y-100700000D01*
X170408157Y-100452235D01*
X170267809Y-100242191D01*
X170057765Y-100101843D01*
X170042092Y-100098725D01*
X170211310Y-99929507D01*
X170445000Y-99365330D01*
X170445000Y-98754670D01*
X170211310Y-98190493D01*
X169779507Y-97758690D01*
X169215330Y-97525000D01*
X168604670Y-97525000D01*
X168040493Y-97758690D01*
X167608690Y-98190493D01*
X167375000Y-98754670D01*
X167375000Y-99365330D01*
X167389294Y-99399838D01*
X162714133Y-104075000D01*
X162294452Y-104075000D01*
X161803783Y-104278242D01*
X161428242Y-104653783D01*
X161225000Y-105144452D01*
X161225000Y-105675548D01*
X161428242Y-106166217D01*
X161803783Y-106541758D01*
X162294452Y-106745000D01*
X162825548Y-106745000D01*
X162995001Y-106674810D01*
X162995000Y-110707025D01*
X162698242Y-111003783D01*
X162495000Y-111494452D01*
X162495000Y-112025548D01*
X162698242Y-112516217D01*
X162995001Y-112812976D01*
X162995000Y-113954132D01*
X162625000Y-114324132D01*
X162625000Y-114034452D01*
X162421758Y-113543783D01*
X162125000Y-113247025D01*
X162125000Y-110214230D01*
X162141357Y-110131997D01*
X162125000Y-110049764D01*
X162125000Y-110049761D01*
X162076552Y-109806197D01*
X162040529Y-109752285D01*
X161938584Y-109599713D01*
X161938583Y-109599712D01*
X161892001Y-109529997D01*
X161822285Y-109483415D01*
X159926588Y-107587719D01*
X159880002Y-107517998D01*
X159603802Y-107333447D01*
X159360238Y-107284999D01*
X159360234Y-107284999D01*
X159278001Y-107268642D01*
X159195768Y-107284999D01*
X154852233Y-107284999D01*
X154770000Y-107268642D01*
X154687767Y-107284999D01*
X154687764Y-107284999D01*
X154444200Y-107333447D01*
X154168000Y-107517998D01*
X154121415Y-107587717D01*
X153824132Y-107885000D01*
X153404452Y-107885000D01*
X152913783Y-108088242D01*
X152538242Y-108463783D01*
X152335000Y-108954452D01*
X152335000Y-109374132D01*
X148844133Y-112865000D01*
X148304561Y-112865000D01*
X147777138Y-113083466D01*
X147395604Y-113465000D01*
X145827661Y-113465000D01*
X145742481Y-113337519D01*
X145300891Y-113042458D01*
X144911485Y-112965000D01*
X144648515Y-112965000D01*
X144259109Y-113042458D01*
X143817519Y-113337519D01*
X143522458Y-113779109D01*
X143442182Y-114182684D01*
X142009447Y-112749949D01*
X142186534Y-112572862D01*
X142405000Y-112045439D01*
X142405000Y-111505868D01*
X143355868Y-110555000D01*
X143775548Y-110555000D01*
X144266217Y-110351758D01*
X144641758Y-109976217D01*
X144845000Y-109485548D01*
X144845000Y-108954452D01*
X144641758Y-108463783D01*
X144266217Y-108088242D01*
X143775548Y-107885000D01*
X143244452Y-107885000D01*
X142753783Y-108088242D01*
X142378242Y-108463783D01*
X142175000Y-108954452D01*
X142175000Y-109374132D01*
X141224132Y-110325000D01*
X140684561Y-110325000D01*
X140535000Y-110386950D01*
X140535000Y-110214235D01*
X140551358Y-110131998D01*
X140486552Y-109806197D01*
X140348584Y-109599714D01*
X140302001Y-109529997D01*
X140232282Y-109483412D01*
X139436589Y-108687720D01*
X139390003Y-108617999D01*
X139121966Y-108438902D01*
X140045869Y-107515000D01*
X147755000Y-107515000D01*
X147755001Y-108172339D01*
X147627519Y-108257519D01*
X147332458Y-108699109D01*
X147228846Y-109220000D01*
X147332458Y-109740891D01*
X147627519Y-110182481D01*
X148069109Y-110477542D01*
X148458515Y-110555000D01*
X148721485Y-110555000D01*
X149110891Y-110477542D01*
X149552481Y-110182481D01*
X149847542Y-109740891D01*
X149951154Y-109220000D01*
X149847542Y-108699109D01*
X149552481Y-108257519D01*
X149425000Y-108172339D01*
X149425000Y-106762237D01*
X149441358Y-106680000D01*
X149376552Y-106354199D01*
X149303588Y-106245000D01*
X156127766Y-106245000D01*
X156209999Y-106261357D01*
X156292232Y-106245000D01*
X156432339Y-106245000D01*
X156517519Y-106372481D01*
X156959109Y-106667542D01*
X157348515Y-106745000D01*
X157611485Y-106745000D01*
X157630375Y-106741243D01*
X157647715Y-106758583D01*
X157854198Y-106896551D01*
X158179998Y-106961356D01*
X158505799Y-106896551D01*
X158781999Y-106711999D01*
X158966551Y-106435799D01*
X159031356Y-106109998D01*
X158966551Y-105784198D01*
X158828583Y-105577715D01*
X158811243Y-105560375D01*
X158841154Y-105410000D01*
X158737542Y-104889109D01*
X158442481Y-104447519D01*
X158000891Y-104152458D01*
X157611485Y-104075000D01*
X157348515Y-104075000D01*
X156959109Y-104152458D01*
X156517519Y-104447519D01*
X156481818Y-104500949D01*
X150674334Y-98693467D01*
X150695324Y-98662054D01*
X150868786Y-97790000D01*
X150695324Y-96917946D01*
X150208926Y-96190000D01*
X159042560Y-96190000D01*
X159042560Y-99390000D01*
X159091843Y-99637765D01*
X159232191Y-99847809D01*
X159442235Y-99988157D01*
X159690000Y-100037440D01*
X162890000Y-100037440D01*
X163137765Y-99988157D01*
X163347809Y-99847809D01*
X163488157Y-99637765D01*
X163537440Y-99390000D01*
X163537440Y-96190000D01*
X163516554Y-96085000D01*
X174137773Y-96085000D01*
X174252820Y-96257180D01*
X174714918Y-96565944D01*
X175122412Y-96647000D01*
X175397588Y-96647000D01*
X175805082Y-96565944D01*
X176267180Y-96257180D01*
X176575944Y-95795082D01*
X176684368Y-95250000D01*
X176575944Y-94704918D01*
X176267180Y-94242820D01*
X175805082Y-93934056D01*
X175397588Y-93853000D01*
X175122412Y-93853000D01*
X174714918Y-93934056D01*
X174252820Y-94242820D01*
X174137773Y-94415000D01*
X161912232Y-94415000D01*
X161829999Y-94398643D01*
X161747766Y-94415000D01*
X161747763Y-94415000D01*
X161504199Y-94463448D01*
X161227999Y-94647999D01*
X161181416Y-94717715D01*
X160757719Y-95141413D01*
X160687999Y-95187999D01*
X160503448Y-95464200D01*
X160487861Y-95542560D01*
X159690000Y-95542560D01*
X159442235Y-95591843D01*
X159232191Y-95732191D01*
X159091843Y-95942235D01*
X159042560Y-96190000D01*
X150208926Y-96190000D01*
X150201345Y-96178655D01*
X149462054Y-95684676D01*
X148810128Y-95555000D01*
X148369872Y-95555000D01*
X147717946Y-95684676D01*
X146978655Y-96178655D01*
X146484676Y-96917946D01*
X146311214Y-97790000D01*
X146484676Y-98662054D01*
X146978655Y-99401345D01*
X147717946Y-99895324D01*
X148369872Y-100025000D01*
X148810128Y-100025000D01*
X149462054Y-99895324D01*
X149493467Y-99874334D01*
X154194131Y-104575000D01*
X139424229Y-104575000D01*
X139341997Y-104558643D01*
X139259765Y-104575000D01*
X139259761Y-104575000D01*
X139016197Y-104623448D01*
X138739997Y-104807999D01*
X138693415Y-104877714D01*
X135527717Y-108043414D01*
X135457999Y-108089998D01*
X135411415Y-108159716D01*
X135273447Y-108366199D01*
X135208642Y-108691999D01*
X123317000Y-108691999D01*
X123317000Y-94325000D01*
X127967560Y-94325000D01*
X127967560Y-96175000D01*
X128016843Y-96422765D01*
X128157191Y-96632809D01*
X128367235Y-96773157D01*
X128615000Y-96822440D01*
X130465000Y-96822440D01*
X130712765Y-96773157D01*
X130922809Y-96632809D01*
X130980541Y-96546408D01*
X136325001Y-101890870D01*
X136325000Y-103092339D01*
X136197519Y-103177519D01*
X135902458Y-103619109D01*
X135798846Y-104140000D01*
X135902458Y-104660891D01*
X136197519Y-105102481D01*
X136639109Y-105397542D01*
X137028515Y-105475000D01*
X137291485Y-105475000D01*
X137680891Y-105397542D01*
X138122481Y-105102481D01*
X138417542Y-104660891D01*
X138521154Y-104140000D01*
X138417542Y-103619109D01*
X138122481Y-103177519D01*
X137995000Y-103092339D01*
X137995000Y-102109041D01*
X139578086Y-102109041D01*
X139817611Y-102615134D01*
X140232577Y-102991041D01*
X140620961Y-103151904D01*
X140843000Y-103029915D01*
X140843000Y-101887000D01*
X141097000Y-101887000D01*
X141097000Y-103029915D01*
X141319039Y-103151904D01*
X141707423Y-102991041D01*
X142122389Y-102615134D01*
X142361914Y-102109041D01*
X142240629Y-101887000D01*
X141097000Y-101887000D01*
X140843000Y-101887000D01*
X139699371Y-101887000D01*
X139578086Y-102109041D01*
X137995000Y-102109041D01*
X137995000Y-101627232D01*
X138011357Y-101544999D01*
X137995000Y-101462766D01*
X137995000Y-101462763D01*
X137984696Y-101410959D01*
X139578086Y-101410959D01*
X139699371Y-101633000D01*
X140843000Y-101633000D01*
X140843000Y-100490085D01*
X141097000Y-100490085D01*
X141097000Y-101633000D01*
X142240629Y-101633000D01*
X142361914Y-101410959D01*
X142122389Y-100904866D01*
X141707423Y-100528959D01*
X141319039Y-100368096D01*
X141097000Y-100490085D01*
X140843000Y-100490085D01*
X140620961Y-100368096D01*
X140232577Y-100528959D01*
X139817611Y-100904866D01*
X139578086Y-101410959D01*
X137984696Y-101410959D01*
X137946552Y-101219199D01*
X137762001Y-100942999D01*
X137692286Y-100896417D01*
X133144125Y-96348256D01*
X133621349Y-96348256D01*
X133710821Y-96607332D01*
X134293368Y-96821325D01*
X134913461Y-96796097D01*
X135369179Y-96607332D01*
X135458651Y-96348256D01*
X134540000Y-95429605D01*
X133621349Y-96348256D01*
X133144125Y-96348256D01*
X131799236Y-95003368D01*
X132968675Y-95003368D01*
X132993903Y-95623461D01*
X133182668Y-96079179D01*
X133441744Y-96168651D01*
X134360395Y-95250000D01*
X134719605Y-95250000D01*
X135638256Y-96168651D01*
X135897332Y-96079179D01*
X136111325Y-95496632D01*
X136086097Y-94876539D01*
X135897332Y-94420821D01*
X135638256Y-94331349D01*
X134719605Y-95250000D01*
X134360395Y-95250000D01*
X133441744Y-94331349D01*
X133182668Y-94420821D01*
X132968675Y-95003368D01*
X131799236Y-95003368D01*
X131513587Y-94717720D01*
X131467001Y-94647999D01*
X131190801Y-94463448D01*
X131112440Y-94447861D01*
X131112440Y-94325000D01*
X131077978Y-94151744D01*
X133621349Y-94151744D01*
X134540000Y-95070395D01*
X135458651Y-94151744D01*
X135369179Y-93892668D01*
X134786632Y-93678675D01*
X134166539Y-93703903D01*
X133710821Y-93892668D01*
X133621349Y-94151744D01*
X131077978Y-94151744D01*
X131063157Y-94077235D01*
X130922809Y-93867191D01*
X130712765Y-93726843D01*
X130465000Y-93677560D01*
X128615000Y-93677560D01*
X128367235Y-93726843D01*
X128157191Y-93867191D01*
X128016843Y-94077235D01*
X127967560Y-94325000D01*
X123317000Y-94325000D01*
X123317000Y-87757000D01*
X187833000Y-87757000D01*
X187833000Y-129413000D01*
G04 #@! TD*
M02*
