G04 #@! TF.FileFunction,Copper,L1,Top,Signal*
%FSLAX46Y46*%
G04 Gerber Fmt 4.6, Leading zero omitted, Abs format (unit mm)*
G04 Created by KiCad (PCBNEW 4.0.7) date 07/05/18 21:38:39*
%MOMM*%
%LPD*%
G01*
G04 APERTURE LIST*
%ADD10C,0.100000*%
%ADD11R,1.700000X1.700000*%
%ADD12O,1.700000X1.700000*%
%ADD13R,1.850000X1.850000*%
%ADD14C,1.850000*%
%ADD15C,1.600000*%
%ADD16O,1.600000X1.600000*%
%ADD17C,1.733000*%
%ADD18R,1.800000X1.800000*%
%ADD19C,1.800000*%
%ADD20C,1.400000*%
%ADD21O,1.400000X1.400000*%
%ADD22O,1.524000X1.524000*%
%ADD23R,1.524000X1.524000*%
%ADD24R,1.600000X1.600000*%
%ADD25C,0.250000*%
G04 APERTURE END LIST*
D10*
D11*
X182880000Y-110490000D03*
D12*
X182880000Y-113030000D03*
D13*
X125730000Y-92710000D03*
D14*
X125730000Y-97710000D03*
D15*
X132080000Y-105156000D03*
D16*
X142080000Y-105156000D03*
D17*
X135890000Y-100330000D03*
X144450000Y-100330000D03*
D18*
X165100000Y-99060000D03*
D19*
X167640000Y-99060000D03*
D20*
X149860000Y-97790000D03*
D21*
X154940000Y-97790000D03*
D20*
X163830000Y-110490000D03*
D21*
X168910000Y-110490000D03*
D20*
X143764000Y-114173000D03*
D21*
X148844000Y-114173000D03*
D20*
X156083000Y-113665000D03*
D21*
X161163000Y-113665000D03*
D20*
X160782000Y-106553000D03*
D21*
X165862000Y-106553000D03*
D20*
X157480000Y-96774000D03*
D21*
X162560000Y-96774000D03*
D20*
X129286000Y-114173000D03*
D21*
X134366000Y-114173000D03*
D20*
X142367000Y-96520000D03*
D21*
X147447000Y-96520000D03*
D20*
X148501100Y-105003600D03*
D21*
X153581100Y-105003600D03*
D22*
X134620000Y-110490000D03*
X139700000Y-110490000D03*
D23*
X137160000Y-110490000D03*
D24*
X121920000Y-123190000D03*
D15*
X121920000Y-125730000D03*
X121920000Y-128270000D03*
X121920000Y-130810000D03*
X129540000Y-130810000D03*
X129540000Y-128270000D03*
X129540000Y-125730000D03*
X129540000Y-123190000D03*
D25*
X153670000Y-110109000D02*
X152527000Y-111252000D01*
X145252696Y-127825036D02*
X145187202Y-127839985D01*
X147548704Y-125676648D02*
X147577851Y-125737174D01*
X160782000Y-106553000D02*
X160528000Y-106553000D01*
X149741057Y-123668377D02*
X149688535Y-123626492D01*
X147619737Y-125789697D02*
X148530303Y-126700263D01*
X150537062Y-122777964D02*
X150476536Y-122748817D01*
X147142951Y-126172076D02*
X147082425Y-126142929D01*
X145003120Y-128222232D02*
X145032267Y-128282758D01*
X149449864Y-126162949D02*
X149420716Y-126223476D01*
X151146920Y-124465893D02*
X151117772Y-124526420D01*
X160528000Y-106553000D02*
X156972000Y-110109000D01*
X148284583Y-127210508D02*
X148219088Y-127195560D01*
X148397232Y-124828120D02*
X148426379Y-124888646D01*
X148520788Y-124475020D02*
X148468265Y-124516905D01*
X151117772Y-124526420D02*
X151075887Y-124578943D01*
X147681775Y-127548791D02*
X147723661Y-127601312D01*
X151204477Y-123104885D02*
X151143951Y-123134032D01*
X149429842Y-123597345D02*
X149369316Y-123626492D01*
X150313340Y-125248928D02*
X150298392Y-125314421D01*
X147767756Y-127794512D02*
X147752808Y-127860005D01*
X148581314Y-124445873D02*
X148520788Y-124475020D01*
X150123434Y-122872372D02*
X150094287Y-122932898D01*
X148158563Y-127166412D02*
X148106039Y-127124527D01*
X146294423Y-127020604D02*
X146233897Y-126991457D01*
X150411042Y-122733868D02*
X150343863Y-122733868D01*
X149316793Y-123668377D02*
X149274907Y-123720899D01*
X146729323Y-126585702D02*
X146771209Y-126638225D01*
X147798280Y-125279452D02*
X147732786Y-125294401D01*
X148840007Y-124475020D02*
X148779481Y-124445873D01*
X149981639Y-125513452D02*
X149916144Y-125498504D01*
X150079338Y-123065571D02*
X150094287Y-123131065D01*
X156972000Y-110109000D02*
X153670000Y-110109000D01*
X150885258Y-123104885D02*
X150832735Y-123063000D01*
X149562515Y-123582396D02*
X149495336Y-123582396D01*
X151078457Y-123148981D02*
X151011278Y-123148981D01*
X149245760Y-123979592D02*
X149274907Y-124040118D01*
X150114312Y-125498503D02*
X150048817Y-125513453D01*
X145871672Y-129741143D02*
X145806177Y-129756093D01*
X149265784Y-126347031D02*
X149200289Y-126361981D01*
X150217843Y-122777964D02*
X150165320Y-122819850D01*
X152527000Y-111252000D02*
X152527000Y-121793000D01*
X152527000Y-121793000D02*
X151257000Y-123063000D01*
X151257000Y-123063000D02*
X151204477Y-123104885D01*
X146346945Y-127062489D02*
X146294423Y-127020604D01*
X151143951Y-123134032D02*
X151078457Y-123148981D01*
X149420716Y-126223476D02*
X149378831Y-126275999D01*
X149855619Y-125469356D02*
X149803095Y-125427471D01*
X150298392Y-125314421D02*
X150269244Y-125374948D01*
X150476536Y-122748817D02*
X150411042Y-122733868D01*
X146833247Y-128821583D02*
X146780725Y-128863469D01*
X151011278Y-123148981D02*
X150945784Y-123134032D01*
X145204257Y-129355929D02*
X145138764Y-129340979D01*
X148382283Y-124695447D02*
X148382283Y-124762626D01*
X150343863Y-122733868D02*
X150278369Y-122748817D01*
X150945784Y-123134032D02*
X150885258Y-123104885D01*
X151075887Y-124154679D02*
X151117773Y-124207200D01*
X150651623Y-124578943D02*
X149741057Y-123668377D01*
X150313341Y-125181748D02*
X150313340Y-125248928D01*
X150832735Y-123063000D02*
X150589585Y-122819850D01*
X146522032Y-128892616D02*
X146461507Y-128863468D01*
X150589585Y-122819850D02*
X150537062Y-122777964D01*
X149378831Y-126275999D02*
X149326309Y-126317885D01*
X148779481Y-124445873D02*
X148713987Y-124430924D01*
X149245760Y-123781425D02*
X149230811Y-123846919D01*
X150278369Y-122748817D02*
X150217843Y-122777964D01*
X150830167Y-124664924D02*
X150764672Y-124649976D01*
X148616284Y-126945984D02*
X148601336Y-127011477D01*
X148530303Y-127124527D02*
X148477781Y-127166413D01*
X150165320Y-122819850D02*
X150123434Y-122872372D01*
X146884258Y-126142929D02*
X146823732Y-126172076D01*
X150094287Y-122932898D02*
X150079338Y-122998392D01*
X148954567Y-126275999D02*
X148044001Y-125365433D01*
X145032267Y-127963539D02*
X145003120Y-128024065D01*
X150079338Y-122998392D02*
X150079338Y-123065571D01*
X145984719Y-129245847D02*
X146026605Y-129298368D01*
X150094287Y-123131065D02*
X150123434Y-123191591D01*
X149464812Y-126097456D02*
X149449864Y-126162949D01*
X150123434Y-123191591D02*
X150165320Y-123244114D01*
X149464813Y-126030276D02*
X149464812Y-126097456D01*
X150165320Y-123244114D02*
X151075887Y-124154679D01*
X147619737Y-125365433D02*
X147577851Y-125417955D01*
X151117773Y-124207200D02*
X151146919Y-124267727D01*
X151146919Y-124267727D02*
X151161869Y-124333220D01*
X148417256Y-127195559D02*
X148351761Y-127210509D01*
X149230811Y-123846919D02*
X149230811Y-123914098D01*
X146685227Y-126459682D02*
X146700176Y-126525176D01*
X148397232Y-124629953D02*
X148382283Y-124695447D01*
X151161869Y-124333220D02*
X151161868Y-124400400D01*
X149133111Y-126361980D02*
X149067616Y-126347032D01*
X148106039Y-127124527D02*
X147195473Y-126213961D01*
X150962840Y-124649975D02*
X150897345Y-124664925D01*
X145319875Y-127825036D02*
X145252696Y-127825036D01*
X148426379Y-124569427D02*
X148397232Y-124629953D01*
X150897345Y-124664925D02*
X150830167Y-124664924D01*
X150764672Y-124649976D02*
X150704147Y-124620828D01*
X151161868Y-124400400D02*
X151146920Y-124465893D01*
X149369316Y-123626492D02*
X149316793Y-123668377D01*
X147577851Y-125737174D02*
X147619737Y-125789697D01*
X151075887Y-124578943D02*
X151023365Y-124620829D01*
X147310035Y-128014940D02*
X147257511Y-127973055D01*
X151023365Y-124620829D02*
X150962840Y-124649975D01*
X150704147Y-124620828D02*
X150651623Y-124578943D01*
X146035730Y-126991457D02*
X145975204Y-127020604D01*
X149688535Y-123626492D02*
X149628009Y-123597345D01*
X150227359Y-125003207D02*
X150269245Y-125055728D01*
X147082425Y-126142929D02*
X147016931Y-126127980D01*
X145074153Y-127911017D02*
X145032267Y-127963539D01*
X149628009Y-123597345D02*
X149562515Y-123582396D01*
X146771209Y-126213961D02*
X146729323Y-126266483D01*
X149495336Y-123582396D02*
X149429842Y-123597345D01*
X149274907Y-123720899D02*
X149245760Y-123781425D01*
X145836699Y-127241031D02*
X145836699Y-127308210D01*
X146919229Y-128575860D02*
X146919228Y-128643040D01*
X149230811Y-123914098D02*
X149245760Y-123979592D01*
X146729323Y-126266483D02*
X146700176Y-126327009D01*
X150269245Y-125055728D02*
X150298391Y-125116255D01*
X147436055Y-128059036D02*
X147370560Y-128044088D01*
X149274907Y-124040118D02*
X149316793Y-124092641D01*
X150048817Y-125513453D02*
X149981639Y-125513452D01*
X149316793Y-124092641D02*
X150227359Y-125003207D01*
X146780725Y-128863469D02*
X146720200Y-128892615D01*
X150227359Y-125427471D02*
X150174837Y-125469357D01*
X150298391Y-125116255D02*
X150313341Y-125181748D01*
X145498417Y-127911017D02*
X145445895Y-127869132D01*
X148530303Y-126700263D02*
X148572189Y-126752784D01*
X149326309Y-126317885D02*
X149265784Y-126347031D01*
X150269244Y-125374948D02*
X150227359Y-125427471D01*
X150174837Y-125469357D02*
X150114312Y-125498503D01*
X149916144Y-125498504D02*
X149855619Y-125469356D01*
X149803095Y-125427471D02*
X148892529Y-124516905D01*
X148892529Y-124516905D02*
X148840007Y-124475020D01*
X146070701Y-129424388D02*
X146070700Y-129491568D01*
X148713987Y-124430924D02*
X148646808Y-124430924D01*
X148646808Y-124430924D02*
X148581314Y-124445873D01*
X148468265Y-124516905D02*
X148426379Y-124569427D01*
X147991479Y-125323548D02*
X147930953Y-125294401D01*
X147577851Y-125417955D02*
X147548704Y-125478481D01*
X148382283Y-124762626D02*
X148397232Y-124828120D01*
X147865459Y-125279452D02*
X147798280Y-125279452D01*
X148477781Y-127166413D02*
X148417256Y-127195559D01*
X148426379Y-124888646D02*
X148468265Y-124941169D01*
X148468265Y-124941169D02*
X149378831Y-125851735D01*
X149378831Y-125851735D02*
X149420717Y-125904256D01*
X146026605Y-129298368D02*
X146055751Y-129358895D01*
X149420717Y-125904256D02*
X149449863Y-125964783D01*
X149449863Y-125964783D02*
X149464813Y-126030276D01*
X144988171Y-128156738D02*
X145003120Y-128222232D01*
X147930953Y-125294401D02*
X147865459Y-125279452D01*
X149200289Y-126361981D02*
X149133111Y-126361980D01*
X146461507Y-128863468D02*
X146408983Y-128821583D01*
X145032267Y-128282758D02*
X145074153Y-128335281D01*
X149067616Y-126347032D02*
X149007091Y-126317884D01*
X149007091Y-126317884D02*
X148954567Y-126275999D01*
X147548704Y-125478481D02*
X147533755Y-125543975D01*
X148044001Y-125365433D02*
X147991479Y-125323548D01*
X147732786Y-125294401D02*
X147672260Y-125323548D01*
X147672260Y-125323548D02*
X147619737Y-125365433D01*
X147533755Y-125543975D02*
X147533755Y-125611154D01*
X147533755Y-125611154D02*
X147548704Y-125676648D01*
X148572189Y-126752784D02*
X148601335Y-126813311D01*
X148601335Y-126813311D02*
X148616285Y-126878804D01*
X148616285Y-126878804D02*
X148616284Y-126945984D01*
X146823732Y-126172076D02*
X146771209Y-126213961D01*
X144945564Y-129385076D02*
X144893042Y-129426961D01*
X148601336Y-127011477D02*
X148572188Y-127072004D01*
X148572188Y-127072004D02*
X148530303Y-127124527D01*
X148351761Y-127210509D02*
X148284583Y-127210508D01*
X146587527Y-128907564D02*
X146522032Y-128892616D01*
X146055752Y-129557061D02*
X146026604Y-129617588D01*
X148219088Y-127195560D02*
X148158563Y-127166412D01*
X146875132Y-128769060D02*
X146833247Y-128821583D01*
X147195473Y-126213961D02*
X147142951Y-126172076D01*
X147016931Y-126127980D02*
X146949752Y-126127980D01*
X146949752Y-126127980D02*
X146884258Y-126142929D01*
X146700176Y-126327009D02*
X146685227Y-126392503D01*
X146685227Y-126392503D02*
X146685227Y-126459682D01*
X147370560Y-128044088D02*
X147310035Y-128014940D01*
X146700176Y-126525176D02*
X146729323Y-126585702D01*
X146771209Y-126638225D02*
X147681775Y-127548791D01*
X146919228Y-128643040D02*
X146904280Y-128708533D01*
X147723661Y-127601312D02*
X147752807Y-127661839D01*
X145071584Y-129340980D02*
X145006091Y-129355928D01*
X147752807Y-127661839D02*
X147767757Y-127727332D01*
X145975204Y-127020604D02*
X145922681Y-127062489D01*
X147767757Y-127727332D02*
X147767756Y-127794512D01*
X147752808Y-127860005D02*
X147723660Y-127920532D01*
X147723660Y-127920532D02*
X147681775Y-127973055D01*
X147681775Y-127973055D02*
X147629253Y-128014941D01*
X147629253Y-128014941D02*
X147568728Y-128044087D01*
X147568728Y-128044087D02*
X147503233Y-128059037D01*
X147503233Y-128059037D02*
X147436055Y-128059036D01*
X147257511Y-127973055D02*
X146346945Y-127062489D01*
X146233897Y-126991457D02*
X146168403Y-126976508D01*
X146168403Y-126976508D02*
X146101224Y-126976508D01*
X143510000Y-130810000D02*
X129540000Y-130810000D01*
X146101224Y-126976508D02*
X146035730Y-126991457D01*
X145922681Y-127062489D02*
X145880795Y-127115011D01*
X146833247Y-128397319D02*
X146875133Y-128449840D01*
X145880795Y-127115011D02*
X145851648Y-127175537D01*
X145851648Y-127175537D02*
X145836699Y-127241031D01*
X145836699Y-127308210D02*
X145851648Y-127373704D01*
X145851648Y-127373704D02*
X145880795Y-127434230D01*
X145880795Y-127434230D02*
X145922681Y-127486753D01*
X145922681Y-127486753D02*
X146833247Y-128397319D01*
X146875133Y-128449840D02*
X146904279Y-128510367D01*
X146904279Y-128510367D02*
X146919229Y-128575860D01*
X145738999Y-129756092D02*
X145673504Y-129741144D01*
X146904280Y-128708533D02*
X146875132Y-128769060D01*
X146720200Y-128892615D02*
X146654705Y-128907565D01*
X146654705Y-128907565D02*
X146587527Y-128907564D01*
X146408983Y-128821583D02*
X145498417Y-127911017D01*
X145445895Y-127869132D02*
X145385369Y-127839985D01*
X145932197Y-129711997D02*
X145871672Y-129741143D01*
X145385369Y-127839985D02*
X145319875Y-127825036D01*
X145806177Y-129756093D02*
X145738999Y-129756092D01*
X145187202Y-127839985D02*
X145126676Y-127869132D01*
X145126676Y-127869132D02*
X145074153Y-127911017D01*
X145003120Y-128024065D02*
X144988171Y-128089559D01*
X144988171Y-128089559D02*
X144988171Y-128156738D01*
X145074153Y-128335281D02*
X145984719Y-129245847D01*
X146055751Y-129358895D02*
X146070701Y-129424388D01*
X146070700Y-129491568D02*
X146055752Y-129557061D01*
X146026604Y-129617588D02*
X145984719Y-129670111D01*
X145984719Y-129670111D02*
X145932197Y-129711997D01*
X145673504Y-129741144D02*
X145612979Y-129711996D01*
X145612979Y-129711996D02*
X145560455Y-129670111D01*
X145560455Y-129670111D02*
X145317306Y-129426962D01*
X145317306Y-129426962D02*
X145264784Y-129385075D01*
X145264784Y-129385075D02*
X145204257Y-129355929D01*
X145138764Y-129340979D02*
X145071584Y-129340980D01*
X145006091Y-129355928D02*
X144945564Y-129385076D01*
X144893042Y-129426961D02*
X143510000Y-130810000D01*
M02*
